<?xml version="1.0" standalone="no"?>
<!DOCTYPE svg PUBLIC "-//W3C//DTD SVG 20010904//EN"
 "http://www.w3.org/TR/2001/REC-SVG-20010904/DTD/svg10.dtd">
<svg version="1.0" xmlns="http://www.w3.org/2000/svg"
 width="900.000000pt" height="900.000000pt" viewBox="0 0 900.000000 900.000000"
 preserveAspectRatio="xMidYMid meet">
<metadata>
Created by potrace 1.10, written by Peter Selinger 2001-2011
</metadata>
<g id="logo-group" transform="translate(0.000000,900.000000) scale(0.100000,-0.100000)"
fill="currentColor" stroke="none">
<path d="M4385 8814 c-72 -15 -232 -87 -367 -167 -40 -24 -80 -46 -88 -50 -8
-4 -22 -11 -30 -17 -8 -5 -62 -37 -120 -70 -58 -33 -112 -65 -120 -70 -8 -6
-22 -13 -30 -17 -8 -4 -48 -26 -88 -50 -41 -24 -75 -43 -77 -43 -2 0 -24 -13
-48 -30 -25 -16 -47 -30 -50 -30 -5 0 -245 -139 -277 -160 -8 -6 -22 -13 -30
-17 -16 -7 -206 -117 -230 -133 -8 -6 -24 -14 -35 -19 -11 -5 -73 -41 -138
-80 -65 -39 -120 -71 -122 -71 -3 0 -49 -26 -102 -58 -54 -32 -105 -61 -113
-65 -8 -4 -28 -16 -45 -27 -16 -11 -39 -24 -50 -29 -12 -5 -63 -34 -113 -65
-51 -31 -94 -56 -97 -56 -2 0 -48 -26 -102 -58 -54 -32 -105 -61 -113 -65 -8
-4 -28 -16 -45 -27 -16 -11 -43 -26 -60 -34 -16 -8 -52 -29 -80 -45 -27 -17
-59 -35 -70 -41 -11 -5 -27 -14 -35 -20 -22 -14 -163 -95 -180 -103 -8 -4 -28
-16 -45 -27 -16 -11 -37 -23 -45 -27 -8 -3 -76 -42 -150 -86 -235 -139 -327
-217 -378 -322 -59 -123 -57 -33 -57 -2150 0 -1853 1 -1943 19 -2018 10 -42
22 -80 27 -83 5 -3 9 -12 9 -20 0 -15 28 -60 65 -103 36 -42 167 -135 300
-215 72 -42 137 -81 145 -87 8 -5 22 -12 30 -16 16 -7 205 -117 230 -133 8 -6
22 -13 30 -17 8 -4 59 -33 113 -65 54 -32 100 -58 102 -58 3 0 38 -20 78 -45
41 -25 77 -45 80 -45 3 0 26 -13 50 -30 25 -16 47 -30 50 -30 5 0 191 -107
227 -130 8 -6 24 -15 35 -20 11 -6 43 -24 70 -41 28 -16 64 -37 80 -45 17 -8
44 -23 60 -34 17 -11 37 -23 45 -27 16 -8 206 -118 230 -133 8 -6 22 -13 30
-17 8 -4 59 -33 113 -65 53 -32 99 -58 101 -58 4 0 244 -140 276 -160 8 -6 22
-13 30 -17 8 -4 69 -39 135 -78 66 -39 127 -74 135 -78 8 -4 29 -16 45 -27 17
-11 37 -23 45 -27 8 -4 44 -24 79 -46 35 -21 74 -43 85 -48 12 -6 30 -15 41
-22 158 -94 279 -162 345 -193 30 -15 63 -31 74 -36 49 -26 145 -48 205 -48
60 0 160 24 208 49 10 5 41 20 70 34 84 41 238 126 298 165 11 6 27 15 35 19
14 6 197 113 230 133 8 6 22 13 30 17 8 4 58 32 110 63 52 31 102 59 110 63 8
4 29 16 45 27 17 11 37 23 45 27 8 4 47 25 85 48 39 22 77 44 85 48 8 4 29 16
45 27 17 11 37 23 45 27 8 4 71 40 139 80 67 40 125 73 127 73 4 0 245 141
274 160 8 6 24 14 36 19 19 8 136 76 174 101 8 6 22 13 30 17 8 4 58 32 110
63 52 31 102 59 110 63 8 4 29 16 45 27 17 11 37 23 45 27 17 8 207 118 230
133 8 6 22 13 30 17 8 4 71 40 138 80 68 40 126 73 128 73 4 0 148 83 174 100
8 6 24 15 35 20 11 6 34 19 50 29 17 11 53 32 80 46 70 38 170 105 239 162
107 87 155 181 176 346 16 125 13 3807 -3 3922 -24 167 -91 264 -266 383 -50
34 -93 62 -95 62 -4 0 -244 140 -276 160 -8 6 -22 13 -30 17 -8 4 -44 24 -79
46 -35 21 -74 43 -85 48 -12 5 -34 18 -51 29 -16 11 -37 23 -45 27 -8 4 -47
26 -86 50 -39 24 -75 43 -79 43 -4 0 -27 14 -52 30 -24 17 -46 30 -48 30 -2 0
-36 19 -77 43 -40 24 -80 47 -88 51 -8 4 -24 12 -35 19 -11 7 -63 37 -115 67
-52 30 -104 60 -115 67 -11 7 -27 15 -35 19 -8 4 -44 25 -79 47 -35 21 -74 43
-85 48 -12 5 -34 18 -51 29 -16 11 -37 23 -45 27 -16 8 -206 118 -230 133 -8
6 -22 13 -30 17 -8 4 -58 32 -110 63 -52 31 -102 59 -110 63 -8 4 -28 16 -45
27 -16 11 -37 23 -45 27 -8 4 -44 24 -79 46 -35 21 -74 43 -85 48 -12 5 -34
18 -51 29 -16 11 -37 23 -45 27 -18 8 -208 119 -230 133 -8 6 -22 13 -30 17
-8 4 -55 31 -105 61 -49 30 -98 58 -110 63 -11 5 -29 15 -40 21 -110 71 -333
188 -357 188 -8 0 -18 4 -24 10 -8 8 -160 42 -174 39 -3 -1 -36 -8 -75 -15z
m150 -1230 c34 -5 204 -82 255 -114 30 -20 215 -127 230 -133 8 -4 29 -16 45
-26 17 -11 50 -31 75 -44 25 -14 61 -34 80 -46 19 -11 42 -24 50 -28 8 -4 58
-32 110 -63 52 -31 102 -60 110 -64 8 -4 24 -12 35 -19 103 -62 279 -163 350
-202 22 -11 58 -32 80 -46 22 -14 47 -28 55 -32 8 -4 22 -11 30 -17 28 -19
270 -160 274 -160 2 0 48 -26 103 -58 54 -32 105 -61 113 -65 8 -4 22 -11 30
-17 23 -15 213 -125 230 -133 8 -4 29 -16 45 -26 17 -11 48 -29 70 -41 198
-109 275 -201 288 -345 10 -101 11 -2770 1 -2835 -15 -112 -64 -178 -197 -267
-40 -26 -79 -51 -87 -56 -8 -4 -28 -16 -45 -27 -16 -11 -39 -24 -51 -29 -19
-8 -136 -76 -174 -101 -8 -6 -24 -14 -35 -19 -12 -5 -62 -34 -113 -65 -145
-88 -197 -85 -244 11 l-23 48 -6 1305 c-4 754 -10 1328 -16 1360 -20 117 -85
199 -216 275 -34 20 -69 40 -77 45 -8 5 -40 22 -70 38 -30 16 -82 44 -115 62
-33 18 -85 46 -115 62 -116 63 -197 107 -260 142 -115 64 -210 106 -239 106
-16 0 -39 -8 -51 -18 -46 -37 -50 -71 -51 -487 -1 -214 -4 -401 -8 -415 -3
-14 -14 -36 -24 -50 -15 -22 -25 -25 -80 -25 -66 1 -74 4 -252 110 -38 22 -77
44 -85 48 -8 4 -28 16 -45 27 -16 11 -37 23 -45 27 -8 4 -47 26 -86 50 -39 24
-74 43 -77 43 -3 0 -25 12 -49 28 -56 36 -75 47 -123 73 -44 23 -113 75 -133
99 -22 26 -45 74 -53 110 -13 57 -13 1659 0 1708 20 71 93 128 321 248 74 39
167 65 205 59 11 -2 38 -7 60 -11z m-1876 -1055 c17 -17 31 -35 31 -41 0 -5 7
-24 15 -41 12 -28 15 -216 18 -1337 4 -1371 4 -1370 47 -1451 32 -59 112 -135
170 -162 8 -4 31 -17 50 -28 19 -12 60 -35 90 -51 118 -64 198 -108 260 -142
36 -20 88 -48 115 -62 28 -14 75 -40 107 -57 184 -103 201 -111 260 -111 50
-1 60 2 75 24 10 14 21 36 24 50 4 14 7 198 8 410 1 243 5 400 12 425 14 50
53 84 97 85 36 0 160 -58 257 -120 17 -11 37 -23 45 -27 8 -4 55 -31 105 -61
49 -30 98 -58 110 -63 26 -12 99 -55 150 -88 22 -14 62 -37 88 -51 88 -46 151
-103 183 -166 l29 -59 0 -845 c0 -803 -1 -847 -18 -879 -37 -66 -113 -120
-312 -218 -112 -56 -135 -63 -198 -63 -74 0 -145 25 -275 97 -48 26 -94 51
-102 56 -8 4 -28 16 -45 27 -16 11 -37 23 -45 27 -8 4 -46 26 -85 48 -38 23
-77 44 -85 48 -8 4 -22 11 -30 17 -38 25 -206 123 -225 131 -11 5 -27 13 -35
19 -27 18 -220 130 -224 130 -2 0 -61 34 -131 75 -69 41 -128 75 -130 75 -3 0
-46 25 -97 56 -50 31 -101 60 -113 65 -11 5 -33 18 -50 29 -16 11 -37 23 -45
27 -8 4 -44 24 -79 46 -35 21 -74 43 -85 48 -12 5 -34 18 -51 29 -16 11 -37
23 -45 27 -8 4 -59 33 -113 65 -53 32 -99 58 -101 58 -2 0 -48 26 -103 58 -54
32 -105 62 -113 66 -54 26 -191 121 -232 161 -49 48 -67 84 -86 170 -13 61
-16 249 -19 1405 -3 1198 -2 1346 13 1440 13 86 22 113 50 156 18 28 42 58 51
66 22 19 143 101 163 111 8 4 29 16 45 27 17 11 37 23 45 27 8 3 59 33 113 65
54 32 99 58 102 58 2 0 48 26 102 58 55 31 113 64 129 74 46 26 78 22 113 -13z"/>
</g>
</svg>
