<svg xmlns="http://www.w3.org/2000/svg" viewBox="0 0 100 100">
    <path fill="#f7f7f8" transform="translate(6.945 1.06)" d="m79.8 20.85-5.99-3.46-6.28-3.63-6.02-3.47-6.25-3.61-6.04-3.49-3.23-1.87a6.01 6.01 0 0 0-6 0L36.92 3.1l-6.19 3.58-6.1 3.52-6.18 3.57-6.12 3.53-6.14 3.55-3.15 1.82A5.94 5.94 0 0 0 0 27.87v42.67c0 2.14 1.14 4.12 3 5.19l3.16 1.83 6.14 3.54 6.13 3.54 6.17 3.57 6.1 3.52 6.19 3.57 3.08 1.78a6.01 6.01 0 0 0 6 0l3.23-1.86 6.04-3.49 6.25-3.61 6.02-3.48 6.28-3.63 5.99-3.46 3.3-1.9a6 6 0 0 0 3.01-5.2V27.96c0-2.14-1.14-4.12-3-5.2l-3.3-1.91ZM48.2 81.62l-4.23 2.44c-.62.36-1.38.36-2 0l-5.07-2.93-6.2-3.58-6.09-3.51-6.17-3.57-4.13-2.39c-1.24-.71-2-2.04-2-3.46V33.79c0-1.43.76-2.75 2-3.47l4.12-2.38 4.68-2.7c.67-.38 1.5.1 1.5.87v31.44c0 1.43.76 2.75 2 3.46l4.1 2.37 4.69 2.71c.67.39 1.5-.1 1.5-.87V54.51c0-.77.83-1.25 1.5-.87l4.57 2.64 4.23 2.44c1.24.71 2 2.04 2 3.47v17.69c0 .72-.38 1.38-1 1.73Zm25.6-17.1c0 1.43-.76 2.75-2 3.46l-4.28 2.48L63 73.07c-.67.39-1.5-.1-1.5-.87V40.93c0-1.43-.76-2.75-2-3.46l-4.25-2.46-4.54-2.62c-.67-.39-1.5.1-1.5.87v10.72c0 .77-.83 1.25-1.5.87l-4.73-2.73-4.08-2.36c-1.24-.71-2-2.03-2-3.46V18.43c0-.71.38-1.37 1-1.73l3.07-1.78c1.24-.72 2.76-.72 4 0l4.23 2.44 6.05 3.49 6.24 3.61 6.02 3.48 4.28 2.47c1.24.71 2 2.04 2 3.47v30.65Z"/>
</svg>